{
	"accessors" : 
	[
		{
			"bufferView" : 2,
			"byteOffset" : 0,
			"componentType" : 5126,
			"count" : 9576,
			"max" : 
			[
				1,
				0.835527777671814,
				0.7893137335777283,
				1
			],
			"min" : 
			[
				5.692175545846112e-05,
				0.006584956776350737,
				0.006584956776350737,
				1
			],
			"name" : "accessor_color_m0-PolyPaper23_-1435916",
			"type" : "VEC4"
		},
		{
			"bufferView" : 2,
			"byteOffset" : 153216,
			"componentType" : 5126,
			"count" : 9970,
			"max" : 
			[
				1,
				0.835527777671814,
				0.3488648533821106,
				1
			],
			"min" : 
			[
				0.006584956776350737,
				0.006584956776350737,
				0.006584956776350737,
				1
			],
			"name" : "accessor_color_m1-PolyPaper8_-1439884",
			"type" : "VEC4"
		},
		{
			"bufferView" : 2,
			"byteOffset" : 312736,
			"componentType" : 5126,
			"count" : 1258,
			"max" : 
			[
				0.6800203323364258,
				0.6800203323364258,
				0.6800203323364258,
				0.2509804
			],
			"min" : 
			[
				0.6800203323364258,
				0.6800203323364258,
				0.6800203323364258,
				0.2509804
			],
			"name" : "accessor_color_m2-PolyGlass24_-1439886",
			"type" : "VEC4"
		},
		{
			"bufferView" : 0,
			"byteOffset" : 0,
			"componentType" : 5123,
			"count" : 15204,
			"max" : 
			[
				9575
			],
			"min" : 
			[
				0
			],
			"name" : "accessor_indices_0_m0-PolyPaper23_-1435916",
			"type" : "SCALAR"
		},
		{
			"bufferView" : 0,
			"byteOffset" : 30408,
			"componentType" : 5123,
			"count" : 15756,
			"max" : 
			[
				9969
			],
			"min" : 
			[
				0
			],
			"name" : "accessor_indices_0_m1-PolyPaper8_-1439884",
			"type" : "SCALAR"
		},
		{
			"bufferView" : 0,
			"byteOffset" : 61920,
			"componentType" : 5123,
			"count" : 1848,
			"max" : 
			[
				1257
			],
			"min" : 
			[
				0
			],
			"name" : "accessor_indices_0_m2-PolyGlass24_-1439886",
			"type" : "SCALAR"
		},
		{
			"bufferView" : 1,
			"byteOffset" : 114912,
			"componentType" : 5126,
			"count" : 9576,
			"max" : 
			[
				1,
				1,
				1
			],
			"min" : 
			[
				-1,
				-1,
				-1
			],
			"name" : "accessor_normal_m0-PolyPaper23_-1435916",
			"type" : "VEC3"
		},
		{
			"bufferView" : 1,
			"byteOffset" : 349464,
			"componentType" : 5126,
			"count" : 9970,
			"max" : 
			[
				1,
				1,
				1
			],
			"min" : 
			[
				-1,
				-1,
				-1
			],
			"name" : "accessor_normal_m1-PolyPaper8_-1439884",
			"type" : "VEC3"
		},
		{
			"bufferView" : 1,
			"byteOffset" : 484200,
			"componentType" : 5126,
			"count" : 1258,
			"max" : 
			[
				1,
				1,
				1
			],
			"min" : 
			[
				-1,
				-1,
				-1
			],
			"name" : "accessor_normal_m2-PolyGlass24_-1439886",
			"type" : "VEC3"
		},
		{
			"bufferView" : 1,
			"byteOffset" : 0,
			"componentType" : 5126,
			"count" : 9576,
			"max" : 
			[
				-0.2699968,
				1.096227,
				-0.059293
			],
			"min" : 
			[
				-0.4947588,
				0.590035,
				-0.2600288
			],
			"name" : "accessor_position_m0-PolyPaper23_-1435916",
			"type" : "VEC3"
		},
		{
			"bufferView" : 1,
			"byteOffset" : 229824,
			"componentType" : 5126,
			"count" : 9970,
			"max" : 
			[
				-0.2799659,
				1.140023,
				-0.06228583
			],
			"min" : 
			[
				-0.4900254,
				0.5603304,
				-0.3278267
			],
			"name" : "accessor_position_m1-PolyPaper8_-1439884",
			"type" : "VEC3"
		},
		{
			"bufferView" : 1,
			"byteOffset" : 469104,
			"componentType" : 5126,
			"count" : 1258,
			"max" : 
			[
				-0.2764441,
				1.133665,
				-0.06228596
			],
			"min" : 
			[
				-0.4871584,
				0.5781790999999999,
				-0.2743013
			],
			"name" : "accessor_position_m2-PolyGlass24_-1439886",
			"type" : "VEC3"
		}
	],
	"asset" : 
	{
		"copyright" : "Unknown",
		"generator" : "glTF 1-to-2 Upgrader for Google Blocks",
		"version" : "2.0"
	},
	"bufferViews" : 
	[
		{
			"buffer" : 0,
			"byteLength" : 65616,
			"byteOffset" : 0,
			"name" : "ushortBufferView",
			"target" : 34963
		},
		{
			"buffer" : 0,
			"byteLength" : 499296,
			"byteOffset" : 65616,
			"byteStride" : 12,
			"name" : "vec3BufferView",
			"target" : 34962
		},
		{
			"buffer" : 0,
			"byteLength" : 332864,
			"byteOffset" : 564912,
			"byteStride" : 16,
			"name" : "vec4BufferView",
			"target" : 34962
		}
	],
	"buffers" : 
	[
		{
			"byteLength" : 897776,
			"name" : "model",
			"uri" : "model.bin"
		}
	],
	"materials" : 
	[
		{
			"alphaMode" : "OPAQUE",
			"doubleSided" : false,
			"name" : "BlocksPaper",
			"pbrMetallicRoughness" : 
			{
				"baseColorFactor" : 
				[
					1,
					1,
					1,
					1
				],
				"metallicFactor" : 0,
				"roughnessFactor" : 0.6
			}
		},
		{
			"alphaMode" : "BLEND",
			"doubleSided" : false,
			"name" : "BlocksGlass",
			"pbrMetallicRoughness" : 
			{
				"baseColorFactor" : 
				[
					0.2,
					0.2,
					1,
					0.3
				],
				"metallicFactor" : 1,
				"roughnessFactor" : 0.4
			}
		},
		{
			"alphaMode" : "OPAQUE",
			"doubleSided" : true,
			"name" : "BlocksGem",
			"pbrMetallicRoughness" : 
			{
				"baseColorFactor" : 
				[
					1,
					0.4,
					1,
					1
				],
				"metallicFactor" : 0,
				"roughnessFactor" : 0.1
			}
		}
	],
	"meshes" : 
	[
		{
			"name" : "mesh_m0-PolyPaper23_-1435916",
			"primitives" : 
			[
				{
					"attributes" : 
					{
						"COLOR_0" : 0,
						"NORMAL" : 6,
						"POSITION" : 9
					},
					"indices" : 3,
					"material" : 0,
					"mode" : 4
				}
			]
		},
		{
			"name" : "mesh_m1-PolyPaper8_-1439884",
			"primitives" : 
			[
				{
					"attributes" : 
					{
						"COLOR_0" : 1,
						"NORMAL" : 7,
						"POSITION" : 10
					},
					"indices" : 4,
					"material" : 0,
					"mode" : 4
				}
			]
		},
		{
			"name" : "mesh_m2-PolyGlass24_-1439886",
			"primitives" : 
			[
				{
					"attributes" : 
					{
						"COLOR_0" : 2,
						"NORMAL" : 8,
						"POSITION" : 11
					},
					"indices" : 5,
					"material" : 1,
					"mode" : 4
				}
			]
		}
	],
	"nodes" : 
	[
		{
			"matrix" : 
			[
				1,
				0,
				0,
				0,
				0,
				1,
				0,
				0,
				0,
				0,
				1,
				0,
				0,
				0,
				0,
				1
			],
			"mesh" : 2,
			"name" : "node_MeshObject-1261838080-PolyGlass24"
		},
		{
			"matrix" : 
			[
				1,
				0,
				0,
				0,
				0,
				1,
				0,
				0,
				0,
				0,
				1,
				0,
				0,
				0,
				0,
				1
			],
			"mesh" : 1,
			"name" : "node_MeshObject-1780558144-PolyPaper8"
		},
		{
			"matrix" : 
			[
				1,
				0,
				0,
				0,
				0,
				1,
				0,
				0,
				0,
				0,
				1,
				0,
				0,
				0,
				0,
				1
			],
			"mesh" : 0,
			"name" : "node_MeshObject439528896-PolyPaper23"
		}
	],
	"scene" : 0,
	"scenes" : 
	[
		{
			"extras" : {},
			"name" : "defaultScene",
			"nodes" : 
			[
				2,
				1,
				0
			]
		}
	]
}